<svg id="Capa_1" data-name="Capa 1" xmlns="http://www.w3.org/2000/svg" viewBox="0 0 451 128"><defs><style>.cls-1{fill:#fff;}</style></defs><title>white-logo-plus-name-final</title><path class="cls-1" d="M105.42,102.69V39.83H112a2.82,2.82,0,0,1,3,2.3l.87,6.82A35.3,35.3,0,0,1,125,41.63a23.78,23.78,0,0,1,11.7-2.8,22.68,22.68,0,0,1,9.09,1.71,17.59,17.59,0,0,1,6.58,4.84,21.4,21.4,0,0,1,4,7.54,32.83,32.83,0,0,1,1.36,9.74v40h-11v-40q0-7.13-3.26-11.08t-10-3.94A18.59,18.59,0,0,0,124.32,50a30.18,30.18,0,0,0-7.85,6.39v46.29Z"/><path class="cls-1" d="M195.59,38.77a31.21,31.21,0,0,1,7.67.9,24.11,24.11,0,0,1,6.48,2.64H226.8v4.09q0,2-2.61,2.61l-7.14,1a19.15,19.15,0,0,1,2.11,9,19.37,19.37,0,0,1-1.77,8.35,19,19,0,0,1-4.9,6.42,22,22,0,0,1-7.45,4.1,30,30,0,0,1-9.46,1.43,31.69,31.69,0,0,1-8.32-1.06,10.64,10.64,0,0,0-3,2.76,5.08,5.08,0,0,0-1,2.89,3.91,3.91,0,0,0,1.8,3.5,12.48,12.48,0,0,0,4.78,1.7,40.2,40.2,0,0,0,6.77.51h7.73a42.7,42.7,0,0,1,7.73.69,23.41,23.41,0,0,1,6.77,2.26,12.63,12.63,0,0,1,4.78,4.34,12.91,12.91,0,0,1,1.8,7.16,16.8,16.8,0,0,1-2,7.91,21.34,21.34,0,0,1-5.8,6.82,29.73,29.73,0,0,1-9.24,4.77A39.62,39.62,0,0,1,196,125.34,47.71,47.71,0,0,1,183.89,124a28.3,28.3,0,0,1-8.59-3.66,16,16,0,0,1-5.12-5.31,12.61,12.61,0,0,1-1.71-6.3,11.4,11.4,0,0,1,2.95-7.92,20.22,20.22,0,0,1,8.1-5.18,11.13,11.13,0,0,1-4.25-3.31,8.93,8.93,0,0,1-1.58-5.55,8.68,8.68,0,0,1,.5-2.82A11.17,11.17,0,0,1,175.7,81a16.08,16.08,0,0,1,2.51-2.72A16.27,16.27,0,0,1,181.69,76a19.54,19.54,0,0,1-7.29-6.92A18.94,18.94,0,0,1,171.76,59a19.36,19.36,0,0,1,1.77-8.35,18.45,18.45,0,0,1,4.93-6.39A22.63,22.63,0,0,1,186,40.2,30.83,30.83,0,0,1,195.59,38.77Zm19.61,67.11a5.59,5.59,0,0,0-1.3-3.86,8.46,8.46,0,0,0-3.54-2.25,25.47,25.47,0,0,0-5.15-1.17,47.45,47.45,0,0,0-6.14-.38h-6.58a24,24,0,0,1-6.39-.84,18.11,18.11,0,0,0-5.74,4.1,8.29,8.29,0,0,0-2.21,5.78,7.61,7.61,0,0,0,1.09,3.94,9.23,9.23,0,0,0,3.32,3.17,19.47,19.47,0,0,0,5.62,2.11,36,36,0,0,0,8,.78,35.5,35.5,0,0,0,8-.82,20,20,0,0,0,6-2.34,11.34,11.34,0,0,0,3.76-3.61A8.56,8.56,0,0,0,215.2,105.88ZM195.59,72a17.37,17.37,0,0,0,5.93-.93,12,12,0,0,0,4.31-2.61,10.7,10.7,0,0,0,2.61-4,14.53,14.53,0,0,0,.87-5.12,12.24,12.24,0,0,0-3.5-9.19q-3.51-3.41-10.21-3.41t-10.14,3.41a12.23,12.23,0,0,0-3.51,9.19,14,14,0,0,0,.9,5.12,11,11,0,0,0,2.64,4A12,12,0,0,0,189.76,71,16.9,16.9,0,0,0,195.59,72Z"/><path class="cls-1" d="M252.62,20.1a7,7,0,0,1-.65,3,8.64,8.64,0,0,1-1.74,2.48,8.06,8.06,0,0,1-2.51,1.71,7.52,7.52,0,0,1-3,.62,7.31,7.31,0,0,1-3-.62,8.29,8.29,0,0,1-4.19-4.19,7.32,7.32,0,0,1-.62-3,7.73,7.73,0,0,1,.62-3.07,8,8,0,0,1,1.71-2.55,8.18,8.18,0,0,1,2.48-1.71,7.35,7.35,0,0,1,3-.62,7.57,7.57,0,0,1,3,.62,8,8,0,0,1,2.51,1.71A8.44,8.44,0,0,1,252,17,7.43,7.43,0,0,1,252.62,20.1Zm-2.48,19.73v62.86h-11V39.83Z"/><path class="cls-1" d="M269.62,102.69V39.83h6.58a2.82,2.82,0,0,1,3,2.3L280,49a35.3,35.3,0,0,1,9.15-7.32,23.79,23.79,0,0,1,11.7-2.8A22.68,22.68,0,0,1,310,40.54a17.59,17.59,0,0,1,6.58,4.84,21.4,21.4,0,0,1,4,7.54,32.83,32.83,0,0,1,1.36,9.74v40h-11v-40q0-7.13-3.26-11.08t-10-3.94A18.59,18.59,0,0,0,288.51,50a30.18,30.18,0,0,0-7.85,6.39v46.29Z"/><path class="cls-1" d="M335,95.87a7.94,7.94,0,0,1,2.2-5.52,7.66,7.66,0,0,1,2.45-1.67,7.75,7.75,0,0,1,6.08,0,8,8,0,0,1,2.48,1.67,7.59,7.59,0,0,1,1.65,2.48,8.2,8.2,0,0,1,0,6.11,7.63,7.63,0,0,1-1.65,2.45,7.49,7.49,0,0,1-2.48,1.65,8.13,8.13,0,0,1-6.08,0,7.17,7.17,0,0,1-2.45-1.65,7.87,7.87,0,0,1-1.61-2.45A7.78,7.78,0,0,1,335,95.87Z"/><path class="cls-1" d="M411.1,102.69h-4.9a5.82,5.82,0,0,1-2.61-.5,2.74,2.74,0,0,1-1.3-2.11l-1.24-5.83q-2.48,2.23-4.84,4a27.67,27.67,0,0,1-5,3,25.73,25.73,0,0,1-5.55,1.83,32,32,0,0,1-6.54.62,22.33,22.33,0,0,1-6.86-1,15.55,15.55,0,0,1-5.55-3.08,14.67,14.67,0,0,1-3.76-5.2,18.24,18.24,0,0,1-1.39-7.44,13.94,13.94,0,0,1,2-7.19,18,18,0,0,1,6.61-6.13,43,43,0,0,1,11.95-4.39,81.31,81.31,0,0,1,18.06-1.71V62.57q0-7.37-3.13-11.14t-9.28-3.78a19.65,19.65,0,0,0-6.8,1,25.62,25.62,0,0,0-4.78,2.3q-2,1.27-3.48,2.29a5,5,0,0,1-2.89,1,3.29,3.29,0,0,1-2-.59,4.42,4.42,0,0,1-1.34-1.46l-2-3.54a35.9,35.9,0,0,1,11.23-7.51,34.68,34.68,0,0,1,13.34-2.48,23.83,23.83,0,0,1,9.37,1.74,19.21,19.21,0,0,1,6.89,4.84,20.5,20.5,0,0,1,4.22,7.51,31.26,31.26,0,0,1,1.43,9.68Zm-28.67-6.77a22.6,22.6,0,0,0,5.34-.59,21.24,21.24,0,0,0,4.56-1.68,24.16,24.16,0,0,0,4.1-2.64,35.6,35.6,0,0,0,3.81-3.54v-13a74.2,74.2,0,0,0-13,1A36.47,36.47,0,0,0,378.59,78a12.1,12.1,0,0,0-4.87,3.68,8,8,0,0,0-1.52,4.74,10.51,10.51,0,0,0,.81,4.31,8.17,8.17,0,0,0,2.17,3,8.51,8.51,0,0,0,3.23,1.68A14.6,14.6,0,0,0,382.44,95.93Z"/><path class="cls-1" d="M442.63,20.1a7,7,0,0,1-.65,3,8.64,8.64,0,0,1-1.74,2.48,8.06,8.06,0,0,1-2.51,1.71,7.52,7.52,0,0,1-3,.62,7.31,7.31,0,0,1-3-.62,8.29,8.29,0,0,1-4.19-4.19,7.32,7.32,0,0,1-.62-3,7.73,7.73,0,0,1,.62-3.07,8,8,0,0,1,1.71-2.55,8.18,8.18,0,0,1,2.48-1.71,7.35,7.35,0,0,1,3-.62,7.57,7.57,0,0,1,3,.62,8,8,0,0,1,2.51,1.71A8.44,8.44,0,0,1,442,17,7.43,7.43,0,0,1,442.63,20.1Zm-2.48,19.73v62.86h-11V39.83Z"/><path class="cls-1" d="M236.72,20.69a7.94,7.94,0,0,1,2.2-5.52,7.66,7.66,0,0,1,2.45-1.67,7.75,7.75,0,0,1,6.08,0,8,8,0,0,1,2.48,1.67,7.59,7.59,0,0,1,1.65,2.48,8.2,8.2,0,0,1,0,6.11,7.63,7.63,0,0,1-1.65,2.45,7.49,7.49,0,0,1-2.48,1.65,8.13,8.13,0,0,1-6.08,0,7.17,7.17,0,0,1-2.45-1.65,7.87,7.87,0,0,1-1.61-2.45A7.78,7.78,0,0,1,236.72,20.69Z"/><path class="cls-1" d="M427.55,20.69a7.94,7.94,0,0,1,2.2-5.52,7.66,7.66,0,0,1,2.45-1.67,7.75,7.75,0,0,1,6.08,0,8,8,0,0,1,2.48,1.67,7.59,7.59,0,0,1,1.65,2.48,8.2,8.2,0,0,1,0,6.11,7.63,7.63,0,0,1-1.65,2.45,7.49,7.49,0,0,1-2.48,1.65,8.13,8.13,0,0,1-6.08,0,7.17,7.17,0,0,1-2.45-1.65,7.87,7.87,0,0,1-1.61-2.45A7.78,7.78,0,0,1,427.55,20.69Z"/><path class="cls-1" d="M94.24,35.21H32.51a5,5,0,0,1,2.69-.76H93a4.36,4.36,0,0,1,1.08.13C94.18,34.8,94.2,35,94.24,35.21Z"/><path class="cls-1" d="M96.41,65.9c-1-2.12-3.92-3.46-5.78-2-2.08,9.27-5.74,18.77-13.32,24.49C72.63,91.9,66.83,93.68,61,94.48c-7.93,1.08-16.39.35-23.21-3.83A31.2,31.2,0,0,1,25.53,75.47,52.55,52.55,0,0,1,22.18,56l68.69,0c1.28,0,2.69-.07,3.57-1a4.35,4.35,0,0,0,1-2.3A23.43,23.43,0,0,0,95.61,46L31.88,46a6.58,6.58,0,0,1-3.49-.65c-1.52-.91-2-2.86-2.1-4.63a5.61,5.61,0,0,1,1.17-4.07c1.26-1.32,3.25-1.45,5-1.45h.22l61.52,0v0c0-.22-.07-.41-.13-.63C91.43,20,79.32,7.86,65,3.83,53,.43,40,2.36,29,7.93,18.43,13.25,10.85,22.89,7.11,34A68,68,0,0,0,4.23,60.53C5.13,73.09,9.08,86,18.15,94.74c8.79,8.42,21.18,11.74,33.07,12a57.39,57.39,0,0,0,19.62-2.66A39,39,0,0,0,87.47,93.4a37,37,0,0,0,7.36-13,53.11,53.11,0,0,0,1.71-7.34C97,70.7,97.47,68.17,96.41,65.9ZM13.21,41.38a2.62,2.62,0,0,1,0-.41,5.4,5.4,0,0,1,5-5,2.9,2.9,0,0,1,.43,0,5.39,5.39,0,1,1-5.41,5.39Z"/><path class="cls-1" d="M40.21,70.69H72.6S54.09,84.57,40.21,70.69Z"/></svg>