<svg id="Capa_1" data-name="Capa 1" xmlns="http://www.w3.org/2000/svg" xmlns:xlink="http://www.w3.org/1999/xlink" viewBox="0 0 500 500"><defs><style>.cls-1{fill:#543c8f;}.cls-2{fill:url(#Degradado_sin_nombre_10);}.cls-3{fill:url(#Degradado_sin_nombre_10-2);}.cls-4{fill:url(#Degradado_sin_nombre_10-3);}.cls-5{fill:#fff;}.cls-6{fill:url(#Degradado_sin_nombre_10-4);}.cls-7{fill:url(#Degradado_sin_nombre_10-5);}</style><linearGradient id="Degradado_sin_nombre_10" x1="372.48" y1="276.51" x2="389.73" y2="276.51" gradientUnits="userSpaceOnUse"><stop offset="0" stop-color="#543c8f"/><stop offset="1" stop-color="#e62f3b"/></linearGradient><linearGradient id="Degradado_sin_nombre_10-2" x1="262.76" y1="183.83" x2="280.01" y2="183.83" xlink:href="#Degradado_sin_nombre_10"/><linearGradient id="Degradado_sin_nombre_10-3" x1="475.75" y1="183.83" x2="493" y2="183.83" xlink:href="#Degradado_sin_nombre_10"/><linearGradient id="Degradado_sin_nombre_10-4" x1="3" y1="225.49" x2="106.84" y2="225.49" xlink:href="#Degradado_sin_nombre_10"/><linearGradient id="Degradado_sin_nombre_10-5" x1="43.42" y1="249.31" x2="79.57" y2="249.31" xlink:href="#Degradado_sin_nombre_10"/></defs><title>full-color-logo-plus-name-vector</title><path class="cls-1" d="M116.21,285V207.46h7.34q2.63,0,3.32,2.83l1,8.41a40.36,40.36,0,0,1,10.22-9,24.55,24.55,0,0,1,13.06-3.45,23.23,23.23,0,0,1,10.14,2.11,19.89,19.89,0,0,1,7.34,6,27.38,27.38,0,0,1,4.47,9.29,44.43,44.43,0,0,1,1.52,12V285H162.27V235.62q0-8.79-3.64-13.66t-11.12-4.86A19.23,19.23,0,0,0,137.3,220a34.59,34.59,0,0,0-8.76,7.88V285Z"/><path class="cls-1" d="M216.85,206.16a31.71,31.71,0,0,1,8.56,1.11,25.53,25.53,0,0,1,7.24,3.25h19v5q0,2.53-2.91,3.21l-8,1.22a25.64,25.64,0,0,1,2.35,11.1,26,26,0,0,1-2,10.29,23.27,23.27,0,0,1-5.47,7.92,24,24,0,0,1-8.31,5.05,30.57,30.57,0,0,1-10.56,1.76,32.22,32.22,0,0,1-9.28-1.3,12.43,12.43,0,0,0-3.36,3.4,6.69,6.69,0,0,0-1.14,3.56,5,5,0,0,0,2,4.31,13.12,13.12,0,0,0,5.33,2.1,40.72,40.72,0,0,0,7.55.63h8.62a43.28,43.28,0,0,1,8.62.86,24.47,24.47,0,0,1,7.55,2.78,14.72,14.72,0,0,1,5.33,5.35,17.22,17.22,0,0,1,2,8.83,22.45,22.45,0,0,1-2.25,9.76,25.82,25.82,0,0,1-6.48,8.4A32.21,32.21,0,0,1,231,310.69a40.37,40.37,0,0,1-13.78,2.21,48.46,48.46,0,0,1-13.47-1.68,30.12,30.12,0,0,1-9.59-4.52,19,19,0,0,1-5.71-6.55,16.81,16.81,0,0,1-1.9-7.77,14.93,14.93,0,0,1,3.29-9.77,22.48,22.48,0,0,1,9-6.39,12.69,12.69,0,0,1-4.75-4.09,11.85,11.85,0,0,1-1.76-6.84,11.71,11.71,0,0,1,.55-3.48,14.33,14.33,0,0,1,1.7-3.55,19.23,19.23,0,0,1,2.8-3.36,18.13,18.13,0,0,1,3.88-2.83,22.92,22.92,0,0,1-8.14-8.53,25.26,25.26,0,0,1-2.94-12.43,26,26,0,0,1,2-10.29,22.61,22.61,0,0,1,5.51-7.88,24.62,24.62,0,0,1,8.42-5A31.43,31.43,0,0,1,216.85,206.16Zm21.89,82.74a7.35,7.35,0,0,0-1.45-4.76,9.4,9.4,0,0,0-3.95-2.77,26.17,26.17,0,0,0-5.75-1.44,48,48,0,0,0-6.86-.47h-7.34a24.44,24.44,0,0,1-7.13-1,20.41,20.41,0,0,0-6.41,5.06,10.84,10.84,0,0,0-2.46,7.13,10.14,10.14,0,0,0,1.21,4.86,10.84,10.84,0,0,0,3.71,3.91,20.52,20.52,0,0,0,6.27,2.61,36.56,36.56,0,0,0,8.9,1,36,36,0,0,0,8.93-1,21.12,21.12,0,0,0,6.68-2.89,13.33,13.33,0,0,0,4.19-4.45A11.39,11.39,0,0,0,238.73,288.9Zm-21.89-41.81a17.73,17.73,0,0,0,6.62-1.15,13.19,13.19,0,0,0,4.82-3.21,13.4,13.4,0,0,0,2.91-4.94,19.61,19.61,0,0,0,1-6.31q0-7.12-3.91-11.33T216.85,216q-7.41,0-11.32,4.21t-3.91,11.33a18.94,18.94,0,0,0,1,6.31,13.69,13.69,0,0,0,2.94,4.94,13.2,13.2,0,0,0,4.78,3.21A17.25,17.25,0,0,0,216.85,247.09Z"/><path class="cls-1" d="M280.5,183.13a9.45,9.45,0,0,1-.73,3.71,10.73,10.73,0,0,1-1.94,3.06A9,9,0,0,1,275,192a7.71,7.71,0,0,1-3.39.76,7.5,7.5,0,0,1-3.36-.76,9.17,9.17,0,0,1-2.77-2.11,10.16,10.16,0,0,1-1.9-3.06,9.84,9.84,0,0,1-.69-3.71,10.4,10.4,0,0,1,.69-3.79,10,10,0,0,1,1.9-3.14,9.16,9.16,0,0,1,2.77-2.1,7.55,7.55,0,0,1,3.36-.77,7.77,7.77,0,0,1,3.39.77,9,9,0,0,1,2.8,2.1,10.51,10.51,0,0,1,1.94,3.14A10,10,0,0,1,280.5,183.13Zm-2.77,24.33V285H265.4V207.46Z"/><path class="cls-1" d="M299.48,285V207.46h7.34q2.63,0,3.32,2.83l1,8.41a40.36,40.36,0,0,1,10.22-9,24.55,24.55,0,0,1,13.06-3.45,23.23,23.23,0,0,1,10.14,2.11,19.89,19.89,0,0,1,7.34,6,27.38,27.38,0,0,1,4.47,9.29,44.43,44.43,0,0,1,1.52,12V285H345.54V235.62q0-8.79-3.64-13.66t-11.12-4.86a19.23,19.23,0,0,0-10.22,2.9,34.59,34.59,0,0,0-8.76,7.88V285Z"/><path class="cls-2" d="M372.48,276.55a10.54,10.54,0,0,1,.66-3.75,9.81,9.81,0,0,1,1.8-3.06,8.58,8.58,0,0,1,2.74-2.06,7.9,7.9,0,0,1,6.79,0,9,9,0,0,1,2.77,2.06,9.49,9.49,0,0,1,1.84,3.06,11.1,11.1,0,0,1,0,7.53,9.52,9.52,0,0,1-1.84,3,8.35,8.35,0,0,1-2.77,2,8.28,8.28,0,0,1-6.79,0,8,8,0,0,1-2.74-2,9.84,9.84,0,0,1-1.8-3A10.47,10.47,0,0,1,372.48,276.55Z"/><path class="cls-1" d="M457.4,285h-5.47a6,6,0,0,1-2.91-.61,3.43,3.43,0,0,1-1.45-2.6l-1.39-7.19q-2.77,2.75-5.4,4.93a30.45,30.45,0,0,1-5.54,3.68,26.86,26.86,0,0,1-6.2,2.26,32.4,32.4,0,0,1-7.31.77,22.76,22.76,0,0,1-7.66-1.27,17,17,0,0,1-6.2-3.8,18.13,18.13,0,0,1-4.19-6.41,24.55,24.55,0,0,1-1.56-9.17,18.55,18.55,0,0,1,2.28-8.87,21.1,21.1,0,0,1,7.38-7.56,45.28,45.28,0,0,1,13.33-5.41,82.47,82.47,0,0,1,20.15-2.11V235.5q0-9.08-3.5-13.74t-10.35-4.66a20,20,0,0,0-7.59,1.26,27.54,27.54,0,0,0-5.33,2.83q-2.25,1.57-3.88,2.83a5.26,5.26,0,0,1-3.22,1.26,3.43,3.43,0,0,1-2.18-.73,5.29,5.29,0,0,1-1.49-1.8l-2.22-4.36a40,40,0,0,1,12.54-9.26,35.51,35.51,0,0,1,14.89-3.06,24.4,24.4,0,0,1,10.46,2.14,21.59,21.59,0,0,1,7.69,6,26.08,26.08,0,0,1,4.71,9.26,42.28,42.28,0,0,1,1.59,11.93Zm-32-8.34a23,23,0,0,0,6-.72,22.32,22.32,0,0,0,5.09-2.07,26.81,26.81,0,0,0,4.57-3.25,41.59,41.59,0,0,0,4.26-4.36v-16a75.16,75.16,0,0,0-14.47,1.19,37.86,37.86,0,0,0-9.7,3.12,13.76,13.76,0,0,0-5.44,4.54,10.51,10.51,0,0,0-1.7,5.85,14.14,14.14,0,0,0,.9,5.31,10.08,10.08,0,0,0,2.42,3.66,9.23,9.23,0,0,0,3.6,2.07A14.85,14.85,0,0,0,425.4,276.63Z"/><path class="cls-1" d="M492.58,183.13a9.45,9.45,0,0,1-.73,3.71,10.73,10.73,0,0,1-1.94,3.06,9,9,0,0,1-2.8,2.11,7.71,7.71,0,0,1-3.39.76,7.5,7.5,0,0,1-3.36-.76,9.17,9.17,0,0,1-2.77-2.11,10.16,10.16,0,0,1-1.9-3.06,9.84,9.84,0,0,1-.69-3.71,10.4,10.4,0,0,1,.69-3.79,10,10,0,0,1,1.9-3.14,9.16,9.16,0,0,1,2.77-2.1,7.55,7.55,0,0,1,3.36-.77,7.77,7.77,0,0,1,3.39.77,9,9,0,0,1,2.8,2.1,10.51,10.51,0,0,1,1.94,3.14A10,10,0,0,1,492.58,183.13Zm-2.77,24.33V285H477.48V207.46Z"/><path class="cls-3" d="M262.76,183.86a10.54,10.54,0,0,1,.66-3.75,9.81,9.81,0,0,1,1.8-3.06A8.58,8.58,0,0,1,268,175a7.9,7.9,0,0,1,6.79,0,9,9,0,0,1,2.77,2.06,9.49,9.49,0,0,1,1.84,3.06,11.1,11.1,0,0,1,0,7.53,9.52,9.52,0,0,1-1.84,3,8.35,8.35,0,0,1-2.77,2,8.28,8.28,0,0,1-6.79,0,8,8,0,0,1-2.74-2,9.84,9.84,0,0,1-1.8-3A10.47,10.47,0,0,1,262.76,183.86Z"/><path class="cls-4" d="M475.75,183.86a10.54,10.54,0,0,1,.66-3.75,9.81,9.81,0,0,1,1.8-3.06,8.58,8.58,0,0,1,2.74-2.06,7.9,7.9,0,0,1,6.79,0,9,9,0,0,1,2.77,2.06,9.49,9.49,0,0,1,1.84,3.06,11.1,11.1,0,0,1,0,7.53,9.52,9.52,0,0,1-1.84,3,8.35,8.35,0,0,1-2.77,2,8.28,8.28,0,0,1-6.79,0,8,8,0,0,1-2.74-2,9.84,9.84,0,0,1-1.8-3A10.47,10.47,0,0,1,475.75,183.86Z"/><path class="cls-5" d="M103.73,201.77H34.82a5.22,5.22,0,0,1,3-.93h64.56a4.43,4.43,0,0,1,1.21.16C103.66,201.26,103.68,201.5,103.73,201.77Z"/><path class="cls-6" d="M106.15,239.6c-1.11-2.62-4.37-4.27-6.45-2.51-2.32,11.43-6.41,23.15-14.86,30.2-5.22,4.38-11.7,6.57-18.18,7.56-8.85,1.33-18.3.43-25.91-4.73C34.43,265.87,29.79,259,27,251.4a70.9,70.9,0,0,1-3.75-24l76.67,0c1.43,0,3-.08,4-1.2a5.68,5.68,0,0,0,1.06-2.83,31.87,31.87,0,0,0,.24-8.3l-71.13,0a6.75,6.75,0,0,1-3.89-.8c-1.69-1.12-2.27-3.52-2.34-5.71a7.44,7.44,0,0,1,1.31-5c1.4-1.63,3.63-1.79,5.63-1.79h.24l68.67,0v0c0-.27-.07-.51-.15-.77-3-18-16.51-32.95-32.46-37.91-13.39-4.19-28-1.82-40.27,5-11.75,6.57-20.21,18.45-24.39,32.2C3.3,210.76,2.53,222,3.25,233c1,15.49,5.41,31.42,15.54,42.18C28.61,285.55,42.43,289.63,55.7,290a58.43,58.43,0,0,0,21.9-3.28,43.32,43.32,0,0,0,18.56-13.16,47.11,47.11,0,0,0,8.22-16,71.31,71.31,0,0,0,1.91-9.05C106.75,245.53,107.33,242.4,106.15,239.6ZM13.28,209.38a3.56,3.56,0,0,1,0-.51,6.37,6.37,0,0,1,5.53-6.11,2.93,2.93,0,0,1,.48,0c3.31,0,6,3,6,6.65s-2.71,6.65-6,6.65S13.28,213.06,13.28,209.38Z"/><path class="cls-7" d="M43.42,245.51H79.57S58.91,262.62,43.42,245.51Z"/></svg>