<svg id="Capa_1" data-name="Capa 1" xmlns="http://www.w3.org/2000/svg" xmlns:xlink="http://www.w3.org/1999/xlink" viewBox="0 0 500 500"><defs><style>.cls-1{fill:#fff;}.cls-2{fill:url(#Degradado_sin_nombre_10);}.cls-3{fill:url(#Degradado_sin_nombre_10-2);}</style><linearGradient id="Degradado_sin_nombre_10" x1="45" y1="249.5" x2="443.54" y2="249.5" gradientUnits="userSpaceOnUse"><stop offset="0" stop-color="#543c8f"/><stop offset="1" stop-color="#e62f3b"/></linearGradient><linearGradient id="Degradado_sin_nombre_10-2" x1="200.11" y1="340.93" x2="338.85" y2="340.93" xlink:href="#Degradado_sin_nombre_10"/></defs><title>full-color-logo-only-vector</title><path class="cls-1" d="M431.58,158.46H167.11a20,20,0,0,1,11.5-3.59H426.38a17,17,0,0,1,4.64.61C431.3,156.51,431.39,157.43,431.58,158.46Z"/><path class="cls-2" d="M440.86,303.65c-4.27-10-16.79-16.39-24.77-9.63-8.91,43.86-24.58,88.84-57,115.89-20,16.8-44.9,25.21-69.76,29-34,5.12-70.22,1.64-99.44-18.14-24.21-16.29-42-42.73-52.6-71.83s-14.29-60.66-14.38-92q147.07,0,294.24-.1c5.47,0,11.5-.31,15.31-4.61,2.5-2.87,3.43-7,4.08-10.86a122.3,122.3,0,0,0,.93-31.87q-136.5,0-273,.1c-5.1,0-10.58-.1-14.93-3.07-6.49-4.3-8.72-13.53-9-21.93-.19-6.87.74-14.24,5-19.26,5.38-6.25,13.91-6.87,21.61-6.87H168q131.77,0,263.54.1v-.1c-.19-1-.28-1.95-.56-3C419.52,86.32,367.67,29,306.44,10,255.05-6.11,199.12,3,151.9,29.35c-45.08,25.21-77.55,70.8-93.6,123.58C46.15,193,43.18,236.13,46,278.24c3.9,59.43,20.78,120.6,59.65,161.9,37.66,39.86,90.72,55.54,141.65,56.77,28.39.72,57-2.56,84-12.6s52.23-26.95,71.24-50.52c14.29-17.73,24.77-38.94,31.54-61.48a273.67,273.67,0,0,0,7.33-34.74C443.17,326.4,445.4,314.41,440.86,303.65Zm-356.39-116a13.67,13.67,0,0,1,.09-1.95c.83-12.5,10-22.54,21.24-23.47a11.26,11.26,0,0,1,1.86-.1c12.71,0,23.1,11.48,23.1,25.51s-10.39,25.51-23.1,25.51S84.46,201.8,84.46,187.66Z"/><path class="cls-3" d="M200.11,326.33H338.85S259.57,392,200.11,326.33Z"/></svg>