<svg id="Capa_1" data-name="Capa 1" xmlns="http://www.w3.org/2000/svg" viewBox="0 0 500 500"><defs><style>.cls-1{fill:#fff;}</style></defs><title>white-logo-plus-name</title><path class="cls-1" d="M116.82,296.84V225.67h7.44a3.19,3.19,0,0,1,3.37,2.6l1,7.73A40,40,0,0,1,139,227.71a26.93,26.93,0,0,1,13.24-3.16,25.68,25.68,0,0,1,10.29,1.93A19.91,19.91,0,0,1,170,232a24.23,24.23,0,0,1,4.53,8.53,37.17,37.17,0,0,1,1.54,11v45.31h-12.5V251.52q0-8.07-3.69-12.54t-11.27-4.46a21,21,0,0,0-10.36,2.67,34.17,34.17,0,0,0-8.89,7.24v52.41Z"/><path class="cls-1" d="M218.9,224.47a35.34,35.34,0,0,1,8.68,1,27.29,27.29,0,0,1,7.34,3h19.32v4.63q0,2.32-3,3l-8.08,1.12a21.68,21.68,0,0,1,2.39,10.19,21.93,21.93,0,0,1-2,9.45A21.46,21.46,0,0,1,238,264.1a24.92,24.92,0,0,1-8.43,4.64,34,34,0,0,1-10.71,1.61,35.88,35.88,0,0,1-9.41-1.2,12,12,0,0,0-3.41,3.13,5.75,5.75,0,0,0-1.16,3.27,4.43,4.43,0,0,0,2,4,14.13,14.13,0,0,0,5.41,1.93A45.52,45.52,0,0,0,220,282h8.75a48.35,48.35,0,0,1,8.75.79,26.5,26.5,0,0,1,7.66,2.56,14.3,14.3,0,0,1,5.41,4.91,14.61,14.61,0,0,1,2,8.11,19,19,0,0,1-2.29,9,24.16,24.16,0,0,1-6.57,7.72,33.66,33.66,0,0,1-10.47,5.41,44.85,44.85,0,0,1-14,2,54,54,0,0,1-13.67-1.55,32,32,0,0,1-9.73-4.15,18.12,18.12,0,0,1-5.8-6,14.28,14.28,0,0,1-1.93-7.14,12.9,12.9,0,0,1,3.34-9,22.89,22.89,0,0,1,9.17-5.87,12.6,12.6,0,0,1-4.81-3.75,10.11,10.11,0,0,1-1.79-6.28,9.83,9.83,0,0,1,.56-3.19,12.65,12.65,0,0,1,1.72-3.26,18.2,18.2,0,0,1,2.84-3.08,18.42,18.42,0,0,1,3.93-2.6,22.13,22.13,0,0,1-8.25-7.83,21.44,21.44,0,0,1-3-11.41,21.92,21.92,0,0,1,2-9.45,20.88,20.88,0,0,1,5.58-7.24,25.62,25.62,0,0,1,8.54-4.6A34.91,34.91,0,0,1,218.9,224.47Zm22.2,76a6.32,6.32,0,0,0-1.47-4.37,9.58,9.58,0,0,0-4-2.54,28.83,28.83,0,0,0-5.83-1.32,53.72,53.72,0,0,0-7-.43h-7.45a27.2,27.2,0,0,1-7.23-.95,20.5,20.5,0,0,0-6.5,4.64,9.38,9.38,0,0,0-2.5,6.54,8.61,8.61,0,0,0,1.23,4.47,10.45,10.45,0,0,0,3.76,3.59,22,22,0,0,0,6.36,2.39,40.8,40.8,0,0,0,9,.88,40.19,40.19,0,0,0,9.06-.93,22.62,22.62,0,0,0,6.78-2.65,12.83,12.83,0,0,0,4.25-4.09A9.7,9.7,0,0,0,241.1,300.45Zm-22.2-38.39a19.67,19.67,0,0,0,6.71-1.05,13.54,13.54,0,0,0,4.88-3,12.11,12.11,0,0,0,3-4.53,16.45,16.45,0,0,0,1-5.79q0-6.54-4-10.4t-11.56-3.86q-7.52,0-11.49,3.86t-4,10.4a15.9,15.9,0,0,0,1,5.79,12.39,12.39,0,0,0,3,4.53,13.54,13.54,0,0,0,4.85,3A19.14,19.14,0,0,0,218.9,262.06Z"/><path class="cls-1" d="M283.47,203.33a8,8,0,0,1-.74,3.41,9.78,9.78,0,0,1-2,2.81,9.12,9.12,0,0,1-2.84,1.93,8.51,8.51,0,0,1-3.44.7,8.27,8.27,0,0,1-3.41-.7,9.38,9.38,0,0,1-4.74-4.74,8.28,8.28,0,0,1-.7-3.41,8.75,8.75,0,0,1,.7-3.48,9.06,9.06,0,0,1,1.93-2.88,9.26,9.26,0,0,1,2.81-1.93,8.33,8.33,0,0,1,3.41-.7,8.57,8.57,0,0,1,3.44.7,9.11,9.11,0,0,1,2.84,1.93,9.56,9.56,0,0,1,2,2.88A8.41,8.41,0,0,1,283.47,203.33Zm-2.81,22.34v71.17h-12.5V225.67Z"/><path class="cls-1" d="M302.71,296.84V225.67h7.44a3.19,3.19,0,0,1,3.37,2.6l1,7.73a40,40,0,0,1,10.36-8.29,26.93,26.93,0,0,1,13.24-3.16,25.68,25.68,0,0,1,10.29,1.93,19.91,19.91,0,0,1,7.45,5.48,24.23,24.23,0,0,1,4.53,8.53,37.17,37.17,0,0,1,1.54,11v45.31h-12.5V251.52q0-8.07-3.69-12.54t-11.27-4.46a21,21,0,0,0-10.36,2.67,34.17,34.17,0,0,0-8.89,7.24v52.41Z"/><path class="cls-1" d="M376.76,289.11a9,9,0,0,1,2.49-6.25A8.68,8.68,0,0,1,382,281a8.78,8.78,0,0,1,6.89,0,9.09,9.09,0,0,1,2.81,1.9,8.6,8.6,0,0,1,1.86,2.81,9.29,9.29,0,0,1,0,6.92,8.63,8.63,0,0,1-1.86,2.77,8.48,8.48,0,0,1-2.81,1.86,9.2,9.2,0,0,1-6.89,0,8.11,8.11,0,0,1-2.77-1.86,8.91,8.91,0,0,1-1.83-2.77A8.81,8.81,0,0,1,376.76,289.11Z"/><path class="cls-1" d="M462.89,296.84h-5.55a6.58,6.58,0,0,1-3-.56,3.11,3.11,0,0,1-1.47-2.39l-1.41-6.6q-2.81,2.53-5.48,4.53a31.33,31.33,0,0,1-5.62,3.38,29.13,29.13,0,0,1-6.29,2.07,36.17,36.17,0,0,1-7.41.7,25.29,25.29,0,0,1-7.76-1.16,17.61,17.61,0,0,1-6.29-3.49,16.61,16.61,0,0,1-4.25-5.89,20.65,20.65,0,0,1-1.58-8.42,15.78,15.78,0,0,1,2.32-8.14,20.41,20.41,0,0,1,7.48-6.94,48.72,48.72,0,0,1,13.52-5A92.05,92.05,0,0,1,450.59,257v-5.58q0-8.34-3.55-12.62t-10.5-4.28a22.25,22.25,0,0,0-7.69,1.16,29,29,0,0,0-5.41,2.6q-2.29,1.44-3.93,2.6a5.67,5.67,0,0,1-3.27,1.16,3.73,3.73,0,0,1-2.21-.67,5,5,0,0,1-1.51-1.65l-2.25-4a40.64,40.64,0,0,1,12.72-8.5,39.26,39.26,0,0,1,15.1-2.81,27,27,0,0,1,10.61,2,21.75,21.75,0,0,1,7.8,5.48,23.21,23.21,0,0,1,4.78,8.5,35.39,35.39,0,0,1,1.61,11Zm-32.45-7.66a25.59,25.59,0,0,0,6-.66,24,24,0,0,0,5.16-1.9,27.35,27.35,0,0,0,4.64-3,40.31,40.31,0,0,0,4.32-4V264.94A84,84,0,0,0,435.91,266a41.29,41.29,0,0,0-9.84,2.86,13.7,13.7,0,0,0-5.51,4.17,9,9,0,0,0-1.72,5.37,11.89,11.89,0,0,0,.91,4.88,9.25,9.25,0,0,0,2.46,3.36,9.64,9.64,0,0,0,3.65,1.91A16.53,16.53,0,0,0,430.43,289.18Z"/><path class="cls-1" d="M498.58,203.33a8,8,0,0,1-.74,3.41,9.78,9.78,0,0,1-2,2.81,9.12,9.12,0,0,1-2.84,1.93,8.51,8.51,0,0,1-3.44.7,8.27,8.27,0,0,1-3.41-.7,9.38,9.38,0,0,1-4.74-4.74,8.28,8.28,0,0,1-.7-3.41,8.75,8.75,0,0,1,.7-3.48,9.06,9.06,0,0,1,1.93-2.88,9.26,9.26,0,0,1,2.81-1.93,8.33,8.33,0,0,1,3.41-.7,8.57,8.57,0,0,1,3.44.7,9.11,9.11,0,0,1,2.84,1.93,9.56,9.56,0,0,1,2,2.88A8.41,8.41,0,0,1,498.58,203.33Zm-2.81,22.34v71.17h-12.5V225.67Z"/><path class="cls-1" d="M265.47,204a9,9,0,0,1,2.49-6.25,8.68,8.68,0,0,1,2.77-1.9,8.78,8.78,0,0,1,6.89,0,9.09,9.09,0,0,1,2.81,1.9,8.6,8.6,0,0,1,1.86,2.81,9.29,9.29,0,0,1,0,6.92,8.63,8.63,0,0,1-1.86,2.77,8.48,8.48,0,0,1-2.81,1.86,9.2,9.2,0,0,1-6.89,0,8.11,8.11,0,0,1-2.77-1.86,8.91,8.91,0,0,1-1.83-2.77A8.81,8.81,0,0,1,265.47,204Z"/><path class="cls-1" d="M481.51,204a9,9,0,0,1,2.49-6.25,8.68,8.68,0,0,1,2.77-1.9,8.78,8.78,0,0,1,6.89,0,9.09,9.09,0,0,1,2.81,1.9,8.6,8.6,0,0,1,1.86,2.81,9.29,9.29,0,0,1,0,6.92,8.63,8.63,0,0,1-1.86,2.77,8.48,8.48,0,0,1-2.81,1.86,9.2,9.2,0,0,1-6.89,0,8.11,8.11,0,0,1-2.77-1.86,8.91,8.91,0,0,1-1.83-2.77A8.81,8.81,0,0,1,481.51,204Z"/><path class="cls-1" d="M104.17,220.44H34.27a5.69,5.69,0,0,1,3-.86h65.48a4.94,4.94,0,0,1,1.23.15C104.09,220,104.12,220.2,104.17,220.44Z"/><path class="cls-1" d="M106.62,255.18c-1.13-2.4-4.44-3.92-6.55-2.3-2.35,10.49-6.5,21.26-15.08,27.73-5.3,4-11.87,6-18.44,6.94-9,1.23-18.56.39-26.28-4.34C33.88,279.3,29.17,273,26.38,266a59.49,59.49,0,0,1-3.8-22l77.76,0c1.45,0,3-.07,4-1.1a4.93,4.93,0,0,0,1.08-2.6,26.52,26.52,0,0,0,.25-7.62l-72.15,0a7.45,7.45,0,0,1-3.95-.74c-1.72-1-2.3-3.24-2.38-5.25a6.35,6.35,0,0,1,1.32-4.61c1.42-1.5,3.68-1.64,5.71-1.64h.25l69.65,0v0c0-.25-.07-.47-.15-.71-3-16.55-16.74-30.25-32.92-34.81-13.58-3.85-28.36-1.67-40.84,4.63-11.91,6-20.5,16.94-24.74,29.57-3.21,9.59-4,19.91-3.26,30C3.28,263.32,7.75,278,18,287.84c10,9.54,24,13.29,37.44,13.58a65,65,0,0,0,22.21-3,44.16,44.16,0,0,0,18.83-12.09,41.94,41.94,0,0,0,8.34-14.71,60.13,60.13,0,0,0,1.94-8.31C107.23,260.62,107.82,257.76,106.62,255.18ZM12.43,227.43a3,3,0,0,1,0-.47,6.12,6.12,0,0,1,5.61-5.61,3.28,3.28,0,0,1,.49,0,6.1,6.1,0,1,1-6.13,6.1Z"/><path class="cls-1" d="M43,260.61H79.66S58.71,276.32,43,260.61Z"/></svg>